<svg xmlns="http://www.w3.org/2000/svg" viewBox="0 0 280 180"><rect width="280" height="180" rx="22" fill="#eaf6f8"/><circle cx="231" cy="32" r="66" fill="#ddedf4"/><path d="m62 91 76-58 76 58M78 81v79h122V81" fill="#fff" stroke="#7aa6df" stroke-width="5" stroke-linecap="round" stroke-linejoin="round"/><path d="M107 76a48 48 0 0 1 63 0m-51 17a29 29 0 0 1 39 0m-26 17a11 11 0 0 1 13 0" fill="none" stroke="#1453ad" stroke-width="7" stroke-linecap="round"/><circle cx="139" cy="122" r="5" fill="#1453ad"/><rect x="108" y="139" width="64" height="24" rx="8" fill="#173052"/><path d="M119 139v-12m42 12v-12" stroke="#173052" stroke-width="4" stroke-linecap="round"/><circle cx="123" cy="151" r="2" fill="#7aa6df"/><circle cx="132" cy="151" r="2" fill="#7aa6df"/><path d="M38 130h19m-9-9v19" stroke="#7aa6df" stroke-width="3" stroke-linecap="round"/></svg>